HIERARCHY
ROOT newVegas:Hips
{
	OFFSET 0.000000 96.479958 0.000000
	CHANNELS 6 Xposition Yposition Zposition Xrotation Yrotation Zrotation
	JOINT newVegas:Pelvis
	{
		OFFSET 0.000000 0.000000 0.000000
		CHANNELS 3 Xrotation Yrotation Zrotation
		JOINT newVegas:LeftUpLeg
		{
			OFFSET 18.735201 -5.666702 -4.541200
			CHANNELS 3 Xrotation Yrotation Zrotation
			JOINT newVegas:LeftLeg
			{
				OFFSET -0.021200 -31.938179 0.493100
				CHANNELS 3 Xrotation Yrotation Zrotation
				JOINT newVegas:LeftFoot
				{
					OFFSET 0.021200 -31.938179 -4.336299
					CHANNELS 3 Xrotation Yrotation Zrotation
					JOINT newVegas:LeftToeBase
					{
						OFFSET 0.943001 -26.722000 15.023500
						CHANNELS 3 Xrotation Yrotation Zrotation
						End Site
						{
							OFFSET 0.000000 30.670183 0.000000
						}
					}
				}
				JOINT newVegas:Left_PantLeg
				{
					OFFSET 0.663870 -9.044666 -1.108900
					CHANNELS 3 Xrotation Yrotation Zrotation
					End Site
					{
						OFFSET 1.415995 20.635357 0.000000
					}
				}
			}
		}
		JOINT newVegas:RightUpLeg
		{
			OFFSET -18.735201 -5.666702 -4.541200
			CHANNELS 3 Xrotation Yrotation Zrotation
			JOINT newVegas:RightLeg
			{
				OFFSET 0.018946 -31.938133 0.493100
				CHANNELS 3 Xrotation Yrotation Zrotation
				JOINT newVegas:RightFoot
				{
					OFFSET -0.018946 -31.938126 -4.336299
					CHANNELS 3 Xrotation Yrotation Zrotation
					JOINT newVegas:RightToeBase
					{
						OFFSET -0.943001 -26.722004 15.023500
						CHANNELS 3 Xrotation Yrotation Zrotation
						End Site
						{
							OFFSET 0.000000 30.670187 0.000000
						}
					}
				}
				JOINT newVegas:Right_PantLeg
				{
					OFFSET -0.661674 -9.044716 -1.108900
					CHANNELS 3 Xrotation Yrotation Zrotation
					End Site
					{
						OFFSET -1.415958 20.635269 0.000000
					}
				}
			}
		}
	}
	JOINT newVegas:Spine
	{
		OFFSET 0.000000 10.199997 -0.299500
		CHANNELS 3 Xrotation Yrotation Zrotation
		JOINT newVegas:Spine1
		{
			OFFSET 0.000000 11.900002 -1.516600
			CHANNELS 3 Xrotation Yrotation Zrotation
			JOINT newVegas:Spine2
			{
				OFFSET 0.000000 13.600006 -2.842500
				CHANNELS 3 Xrotation Yrotation Zrotation
				JOINT newVegas:Neck
				{
					OFFSET 0.000000 9.624100 -2.890100
					CHANNELS 3 Xrotation Yrotation Zrotation
					JOINT newVegas:Head
					{
						OFFSET 0.000000 14.068802 -1.351900
						CHANNELS 3 Xrotation Yrotation Zrotation
						JOINT newVegas:Hair_Back
						{
							OFFSET 0.000000 3.231903 -17.524799
							CHANNELS 3 Xrotation Yrotation Zrotation
							End Site
							{
								OFFSET 0.000000 19.849884 0.000000
							}
						}
						JOINT newVegas:Hair_Front
						{
							OFFSET 0.000000 31.260406 4.573800
							CHANNELS 3 Xrotation Yrotation Zrotation
							JOINT newVegas:Hair_Front1
							{
								OFFSET 0.000000 2.284103 11.993300
								CHANNELS 3 Xrotation Yrotation Zrotation
								JOINT newVegas:Hair_Front2
								{
									OFFSET 0.000000 2.284103 11.993300
									CHANNELS 3 Xrotation Yrotation Zrotation
									End Site
									{
										OFFSET 0.000000 12.208862 0.000000
									}
								}
							}
						}
						JOINT newVegas:Jowel
						{
							OFFSET 0.000000 -7.458206 6.864100
							CHANNELS 3 Xrotation Yrotation Zrotation
							End Site
							{
								OFFSET 0.000000 19.849884 0.000000
							}
						}
					}
				}
				JOINT newVegas:LeftShoulder
				{
					OFFSET 15.263000 10.923401 -0.547700
					CHANNELS 3 Xrotation Yrotation Zrotation
					JOINT newVegas:LeftArm
					{
						OFFSET 25.438599 -2.830597 -13.032500
						CHANNELS 3 Xrotation Yrotation Zrotation
						JOINT newVegas:LeftForeArm
						{
							OFFSET 29.960503 0.000000 0.000000
							CHANNELS 3 Xrotation Yrotation Zrotation
							JOINT newVegas:LeftHand
							{
								OFFSET 27.849251 0.000000 0.000000
								CHANNELS 3 Xrotation Yrotation Zrotation
								JOINT newVegas:LeftHandThumb1
								{
									OFFSET 4.487587 -3.305161 6.305391
									CHANNELS 3 Xrotation Yrotation Zrotation
									JOINT newVegas:LeftHandThumb2
									{
										OFFSET 5.480453 -3.164139 3.164143
										CHANNELS 3 Xrotation Yrotation Zrotation
										JOINT newVegas:LeftHandThumb3
										{
											OFFSET 5.159721 -2.978973 2.978967
											CHANNELS 3 Xrotation Yrotation Zrotation
											End Site
											{
												OFFSET 2.494507 5.926697 1.738678
											}
										}
									}
								}
								JOINT newVegas:LeftHandIndex1
								{
									OFFSET 18.578728 -0.527832 5.208049
									CHANNELS 3 Xrotation Yrotation Zrotation
									JOINT newVegas:LeftHandIndex2
									{
										OFFSET 3.192009 0.000000 0.000000
										CHANNELS 3 Xrotation Yrotation Zrotation
										JOINT newVegas:LeftHandIndex3
										{
											OFFSET 3.835129 0.000000 0.000000
											CHANNELS 3 Xrotation Yrotation Zrotation
											End Site
											{
												OFFSET -0.034599 3.816971 0.371180
											}
										}
									}
								}
								JOINT newVegas:LeftHandMiddle1
								{
									OFFSET 18.476105 0.000000 0.000000
									CHANNELS 3 Xrotation Yrotation Zrotation
									JOINT newVegas:LeftHandMiddle2
									{
										OFFSET 3.324875 0.000000 0.000000
										CHANNELS 3 Xrotation Yrotation Zrotation
										JOINT newVegas:LeftHandMiddle3
										{
											OFFSET 4.596550 0.000000 0.000000
											CHANNELS 3 Xrotation Yrotation Zrotation
											End Site
											{
												OFFSET 0.057701 4.578827 0.399218
											}
										}
									}
								}
								JOINT newVegas:LeftHandRing1
								{
									OFFSET 17.732719 0.121887 -4.201567
									CHANNELS 3 Xrotation Yrotation Zrotation
									JOINT newVegas:LeftHandRing2
									{
										OFFSET 2.733170 0.000000 0.000000
										CHANNELS 3 Xrotation Yrotation Zrotation
										JOINT newVegas:LeftHandRing3
										{
											OFFSET 3.178268 0.000000 0.000000
											CHANNELS 3 Xrotation Yrotation Zrotation
											End Site
											{
												OFFSET 0.119102 3.170624 0.185394
											}
										}
									}
								}
								JOINT newVegas:LeftHandPinky1
								{
									OFFSET 15.989624 -0.606689 -7.535461
									CHANNELS 3 Xrotation Yrotation Zrotation
									JOINT newVegas:LeftHandPinky2
									{
										OFFSET 2.538986 0.000000 0.000000
										CHANNELS 3 Xrotation Yrotation Zrotation
										JOINT newVegas:LeftHandPinky3
										{
											OFFSET 2.593102 0.000000 0.000000
											CHANNELS 3 Xrotation Yrotation Zrotation
											End Site
											{
												OFFSET -0.150902 2.584198 0.152708
											}
										}
									}
								}
							}
							JOINT newVegas:Left_Sleeve
							{
								OFFSET 0.267448 -0.649796 0.577675
								CHANNELS 3 Xrotation Yrotation Zrotation
								End Site
								{
									OFFSET 0.000000 15.991241 0.000000
								}
							}
							JOINT newVegas:Left_CapeC
							{
								OFFSET 15.715958 -8.608795 -6.935905
								CHANNELS 3 Xrotation Yrotation Zrotation
								JOINT newVegas:Left_CapeC1
								{
									OFFSET 0.000000 -8.688499 0.000000
									CHANNELS 3 Xrotation Yrotation Zrotation
									End Site
									{
										OFFSET 0.000000 8.688499 0.000000
									}
								}
							}
						}
						JOINT newVegas:Left_CapeB
						{
							OFFSET 26.118385 -8.608795 -7.079235
							CHANNELS 3 Xrotation Yrotation Zrotation
							JOINT newVegas:Left_CapeB1
							{
								OFFSET 0.000000 -8.688499 0.000000
								CHANNELS 3 Xrotation Yrotation Zrotation
								End Site
								{
									OFFSET 0.000000 8.688499 0.000000
								}
							}
						}
						JOINT newVegas:Left_CapeA
						{
							OFFSET 5.115639 -8.608795 -10.395809
							CHANNELS 3 Xrotation Yrotation Zrotation
							JOINT newVegas:Left_CapeA1
							{
								OFFSET 0.000000 -8.688499 0.000000
								CHANNELS 3 Xrotation Yrotation Zrotation
								End Site
								{
									OFFSET 0.000000 8.688499 0.000000
								}
							}
						}
					}
				}
				JOINT newVegas:RightShoulder
				{
					OFFSET -15.263000 10.923401 -0.547700
					CHANNELS 3 Xrotation Yrotation Zrotation
					JOINT newVegas:RightArm
					{
						OFFSET -25.438599 -2.830597 -13.032500
						CHANNELS 3 Xrotation Yrotation Zrotation
						JOINT newVegas:RightForeArm
						{
							OFFSET -29.960503 0.000000 0.000000
							CHANNELS 3 Xrotation Yrotation Zrotation
							JOINT newVegas:RightHand
							{
								OFFSET -27.849251 0.000000 0.000000
								CHANNELS 3 Xrotation Yrotation Zrotation
								JOINT newVegas:RightHandThumb1
								{
									OFFSET -4.487587 -3.305161 6.305391
									CHANNELS 3 Xrotation Yrotation Zrotation
									JOINT newVegas:RightHandThumb2
									{
										OFFSET -5.480453 -3.164139 3.164143
										CHANNELS 3 Xrotation Yrotation Zrotation
										JOINT newVegas:RightHandThumb3
										{
											OFFSET -5.159721 -2.978973 2.978967
											CHANNELS 3 Xrotation Yrotation Zrotation
											End Site
											{
												OFFSET -2.494507 5.926697 1.738678
											}
										}
									}
								}
								JOINT newVegas:RightHandIndex1
								{
									OFFSET -18.578728 -0.527832 5.208049
									CHANNELS 3 Xrotation Yrotation Zrotation
									JOINT newVegas:RightHandIndex2
									{
										OFFSET -3.192009 0.000000 0.000000
										CHANNELS 3 Xrotation Yrotation Zrotation
										JOINT newVegas:RightHandIndex3
										{
											OFFSET -3.835129 0.000000 0.000000
											CHANNELS 3 Xrotation Yrotation Zrotation
											End Site
											{
												OFFSET 0.034599 3.816971 0.371180
											}
										}
									}
								}
								JOINT newVegas:RightHandMiddle1
								{
									OFFSET -18.476105 0.000000 0.000000
									CHANNELS 3 Xrotation Yrotation Zrotation
									JOINT newVegas:RightHandMiddle2
									{
										OFFSET -3.324875 0.000000 0.000000
										CHANNELS 3 Xrotation Yrotation Zrotation
										JOINT newVegas:RightHandMiddle3
										{
											OFFSET -4.596550 0.000000 0.000000
											CHANNELS 3 Xrotation Yrotation Zrotation
											End Site
											{
												OFFSET -0.057701 4.578827 0.399218
											}
										}
									}
								}
								JOINT newVegas:RightHandRing1
								{
									OFFSET -17.732719 0.121887 -4.201567
									CHANNELS 3 Xrotation Yrotation Zrotation
									JOINT newVegas:RightHandRing2
									{
										OFFSET -2.733170 0.000000 0.000000
										CHANNELS 3 Xrotation Yrotation Zrotation
										JOINT newVegas:RightHandRing3
										{
											OFFSET -3.178268 0.000000 0.000000
											CHANNELS 3 Xrotation Yrotation Zrotation
											End Site
											{
												OFFSET -0.119102 3.170624 0.185394
											}
										}
									}
								}
								JOINT newVegas:RightHandPinky1
								{
									OFFSET -15.989624 -0.606689 -7.535461
									CHANNELS 3 Xrotation Yrotation Zrotation
									JOINT newVegas:RightHandPinky2
									{
										OFFSET -2.538986 0.000000 0.000000
										CHANNELS 3 Xrotation Yrotation Zrotation
										JOINT newVegas:RightHandPinky3
										{
											OFFSET -2.593102 0.000000 0.000000
											CHANNELS 3 Xrotation Yrotation Zrotation
											End Site
											{
												OFFSET 0.150902 2.584198 0.152708
											}
										}
									}
								}
							}
							JOINT newVegas:Right_CapeC
							{
								OFFSET -15.715958 -8.608795 -6.935905
								CHANNELS 3 Xrotation Yrotation Zrotation
								JOINT newVegas:Right_CapeC1
								{
									OFFSET 0.000000 -8.688499 0.000000
									CHANNELS 3 Xrotation Yrotation Zrotation
									End Site
									{
										OFFSET 0.000000 8.688499 0.000000
									}
								}
							}
							JOINT newVegas:Right_Sleeve
							{
								OFFSET -0.267448 -0.649994 0.577675
								CHANNELS 3 Xrotation Yrotation Zrotation
								End Site
								{
									OFFSET 0.000000 15.991302 0.000000
								}
							}
						}
						JOINT newVegas:Right_CapeA
						{
							OFFSET -5.115540 -8.608795 -10.395824
							CHANNELS 3 Xrotation Yrotation Zrotation
							JOINT newVegas:Right_CapeA1
							{
								OFFSET 0.000000 -8.688499 0.000000
								CHANNELS 3 Xrotation Yrotation Zrotation
								End Site
								{
									OFFSET 0.000000 8.688499 0.000000
								}
							}
						}
						JOINT newVegas:Right_CapeB
						{
							OFFSET -26.118187 -8.608795 -7.079266
							CHANNELS 3 Xrotation Yrotation Zrotation
							JOINT newVegas:Right_CapeB1
							{
								OFFSET 0.000000 -8.688499 0.000000
								CHANNELS 3 Xrotation Yrotation Zrotation
								End Site
								{
									OFFSET 0.000000 8.688499 0.000000
								}
							}
						}
					}
				}
				JOINT newVegas:Left_Collar
				{
					OFFSET 18.625099 8.655502 8.828100
					CHANNELS 3 Xrotation Yrotation Zrotation
					JOINT newVegas:Left_Collar1
					{
						OFFSET 14.783401 10.540405 -1.259500
						CHANNELS 3 Xrotation Yrotation Zrotation
						End Site
						{
							OFFSET 0.000000 18.199875 0.000000
						}
					}
				}
				JOINT newVegas:Collar_Back
				{
					OFFSET 0.000000 15.630707 -20.132601
					CHANNELS 3 Xrotation Yrotation Zrotation
					End Site
					{
						OFFSET 0.000000 22.523010 0.000000
					}
				}
				JOINT newVegas:Left_Peck
				{
					OFFSET 17.239599 -5.132599 25.482599
					CHANNELS 3 Xrotation Yrotation Zrotation
					End Site
					{
						OFFSET 0.000000 22.523010 0.000000
					}
				}
				JOINT newVegas:Right_Peck
				{
					OFFSET -17.239599 -5.132202 25.482599
					CHANNELS 3 Xrotation Yrotation Zrotation
					End Site
					{
						OFFSET 0.000000 22.523010 0.000000
					}
				}
				JOINT newVegas:Right_Collar
				{
					OFFSET -18.625099 8.655792 8.828100
					CHANNELS 3 Xrotation Yrotation Zrotation
					JOINT newVegas:Right_Collar1
					{
						OFFSET -14.783401 10.539993 -1.259500
						CHANNELS 3 Xrotation Yrotation Zrotation
						End Site
						{
							OFFSET 0.000000 18.199631 0.000000
						}
					}
				}
			}
		}
		JOINT newVegas:Belly
		{
			OFFSET 0.000000 -6.540398 9.014299
			CHANNELS 3 Xrotation Yrotation Zrotation
			End Site
			{
				OFFSET 0.000000 11.566666 0.000000
			}
		}
	}
	JOINT newVegas:ElvisFacialAnim_Joint
	{
		OFFSET 1.000000 -95.330101 -8.825800
		CHANNELS 3 Xrotation Yrotation Zrotation
		End Site
		{
			OFFSET 0.000000 35.315800 0.000000
		}
	}
}
MOTION
Frames: 4
Frame Time: 0.033333
15.104755 139.153152 74.098633 53.746011 11.749172 2.990485 -0.000001 0.000001 0.000001 -31.717954 8.591468 19.646011 51.030225 1.673231 -0.007302 38.221199 -2.576634 -9.125510 0.000001 -0.000002 0.000000 0.000000 -0.000003 0.000000 -54.390763 -1.785090 -27.963633 42.053307 -0.039173 3.120884 4.075208 -0.782669 17.266436 -0.000002 -0.000000 0.000001 0.000000 0.000001 -0.000000 10.311433 -3.964135 -1.240254 1.075266 -0.919356 2.410137 1.108921 -0.859281 2.419719 -5.602499 -0.276853 -4.085894 -5.602504 -0.276854 -4.085896 -0.000001 -0.000000 -0.000000 -5.602573 -0.276862 -4.085895 -5.602346 -0.276839 -4.085899 0.000003 0.000000 -0.000000 -0.000001 -0.000000 -0.000000 0.612104 -3.795795 -1.790455 -70.897971 -18.767367 -50.381545 -0.000032 -122.139628 -0.000030 62.386572 23.332150 -10.282768 -6.256793 5.698466 7.394674 5.771050 14.502781 -0.848845 0.000000 -0.000000 -0.000003 0.393286 2.982437 -9.095820 0.316238 2.066603 -17.398076 -0.000000 -0.000000 -0.000000 0.090336 1.663685 -3.479595 0.371407 2.234952 -18.868287 -0.000001 -0.000001 0.000000 0.018113 0.841774 -12.592075 0.410849 2.347105 -19.854730 -0.000001 0.000001 0.000001 0.952103 5.229347 -11.690351 0.284352 -2.092944 -16.996803 -0.000000 -0.000002 0.000001 -0.000002 0.000000 -0.000000 -0.000002 0.000000 -0.000000 -0.000003 0.000000 0.000000 -0.000001 -0.000003 -0.000001 -0.000000 -0.000003 -0.000001 -0.000001 -0.000003 -0.000001 -0.000001 -0.000003 -0.000002 0.074470 -1.886164 -2.115735 -79.268239 20.538121 26.125967 -0.000045 111.140141 0.000043 27.457726 -14.272882 20.963912 -1.257528 0.666072 0.529802 -5.462562 -10.016548 -1.921172 0.000002 -0.000002 -0.000001 -0.002828 1.597063 0.198863 0.021727 -0.550399 4.521064 0.000000 -0.000002 -0.000000 0.000305 0.175724 -0.093210 0.045338 -0.794355 6.532743 0.000000 0.000000 -0.000000 0.039789 -1.024475 2.594783 0.055350 -0.877389 7.219196 -0.000001 -0.000001 0.000001 0.158183 -1.771465 6.528618 0.008990 -0.354186 2.907602 0.000000 0.000002 -0.000000 0.000000 0.000003 0.000000 0.000000 0.000001 0.000000 0.000000 0.000003 0.000002 0.000000 -0.000003 0.000000 0.000000 -0.000003 0.000000 0.000000 -0.000003 0.000000 0.000000 -0.000003 0.000000 -0.000001 0.000000 -0.000000 -0.000001 0.000000 -0.000000 -0.000001 0.000000 -0.000000 -0.000001 0.000000 -0.000000 -0.000001 0.000000 -0.000000 -0.000001 0.000000 -0.000000 -0.000001 0.000000 -0.000000 -0.000000 0.000000 0.000000 -0.000001 0.000001 0.000001 
15.433929 138.984955 75.247566 52.737110 11.339465 3.291403 0.000001 0.000001 0.000001 -33.919177 8.381075 20.343254 54.594074 2.391202 -0.364545 37.030455 -2.633039 -9.687273 -0.000001 0.000002 -0.000002 0.000000 -0.000002 0.000001 -54.485969 -1.564244 -27.624442 38.947661 -0.114519 2.363986 7.608193 -0.263880 17.740298 -0.000001 0.000000 0.000001 0.000001 -0.000001 -0.000002 10.457545 -3.983758 -1.269148 1.140887 -0.929708 2.397593 1.174937 -0.868538 2.406828 -5.364282 -0.280899 -4.075782 -5.364260 -0.280898 -4.075783 -0.000003 0.000000 0.000000 -5.364336 -0.280907 -4.075780 -5.364174 -0.280879 -4.075788 -0.000003 0.000000 -0.000001 -0.000003 0.000000 -0.000000 0.645028 -4.344913 -2.432833 -68.194699 -18.236979 -49.723565 0.000022 -123.950530 0.000034 63.332369 23.569340 -10.368735 -6.256794 5.698467 7.394675 5.771049 14.502780 -0.848847 0.000001 -0.000002 -0.000003 0.393286 2.982437 -9.095824 0.325619 2.096290 -17.656363 0.000000 0.000000 0.000000 0.090338 1.663683 -3.479585 0.381553 2.264398 -19.126627 -0.000000 0.000000 0.000000 0.018112 0.841768 -12.592073 0.421496 2.376356 -20.113109 -0.000000 -0.000002 0.000000 0.952106 5.229349 -11.690345 0.293509 -2.063267 -17.254419 0.000000 0.000002 -0.000000 -0.000001 0.000001 -0.000000 -0.000001 0.000001 -0.000000 -0.000002 0.000001 0.000001 -0.000000 -0.000001 -0.000002 0.000000 -0.000002 -0.000003 -0.000000 -0.000001 -0.000002 -0.000001 0.000000 -0.000003 0.133683 -1.439993 -1.478082 -77.992735 18.743149 27.607520 -0.000003 113.851303 0.000002 28.730381 -14.880470 25.756240 -1.257528 0.666070 0.529804 -5.462560 -10.016547 -1.921167 -0.000000 -0.000002 -0.000001 -0.002829 1.597070 0.198863 0.024394 -0.583137 4.790911 -0.000000 -0.000004 -0.000000 0.000304 0.175705 -0.093211 0.049155 -0.826987 6.802619 -0.000000 -0.000002 -0.000000 0.039791 -1.024491 2.594780 0.059558 -0.910001 7.489081 -0.000000 -0.000001 -0.000000 0.158182 -1.771480 6.528617 0.010737 -0.387030 3.177434 -0.000001 0.000003 0.000000 0.000000 0.000002 -0.000001 0.000000 0.000001 -0.000001 0.000000 0.000001 -0.000001 0.000000 -0.000002 0.000000 0.000000 -0.000001 0.000000 0.000000 -0.000002 0.000000 0.000001 -0.000001 0.000002 0.000002 0.000000 0.000000 0.000002 0.000000 0.000000 0.000002 0.000000 0.000000 0.000002 0.000000 0.000000 0.000002 0.000000 0.000000 0.000002 0.000000 0.000000 0.000002 0.000000 0.000000 -0.000002 -0.000000 -0.000000 0.000001 0.000001 0.000001 
15.710434 138.853729 76.466293 51.728885 10.849261 3.630494 0.000002 -0.000001 0.000000 -35.998007 8.327736 21.000612 57.434931 3.015340 -0.749203 35.739962 -2.583861 -9.917161 0.000001 -0.000000 -0.000000 0.000001 -0.000002 0.000001 -54.019693 -1.618961 -27.426908 37.093480 -1.002494 1.616388 9.400403 0.000055 18.407720 0.000001 -0.000000 0.000000 0.000001 -0.000000 -0.000001 10.616744 -3.927864 -1.310861 1.193699 -0.923060 2.364337 1.227222 -0.861280 2.373237 -5.090511 -0.280817 -4.054519 -5.090506 -0.280817 -4.054519 -0.000000 0.000000 0.000000 -5.090500 -0.280819 -4.054517 -5.090514 -0.280816 -4.054518 0.000001 -0.000000 0.000000 -0.000000 0.000000 0.000000 0.670276 -4.889121 -3.170834 -65.458983 -17.706808 -49.125798 0.000003 -125.577044 0.000010 64.266083 23.581921 -10.195008 -6.256792 5.698470 7.394677 5.771050 14.502783 -0.848841 0.000002 -0.000001 -0.000004 0.393287 2.982439 -9.095824 0.335038 2.125651 -17.912286 0.000000 -0.000001 -0.000000 0.090336 1.663684 -3.479587 0.391743 2.293536 -19.382615 0.000001 -0.000002 0.000000 0.018111 0.841775 -12.592074 0.432174 2.405287 -20.369132 0.000001 0.000001 0.000001 0.952106 5.229356 -11.690348 0.302727 -2.033801 -17.509678 -0.000001 -0.000005 0.000001 0.000003 0.000001 -0.000001 0.000003 0.000001 -0.000001 0.000003 0.000001 0.000000 0.000000 0.000001 -0.000001 0.000001 -0.000000 -0.000003 0.000000 0.000001 -0.000001 -0.000000 0.000002 -0.000002 0.191282 -1.012926 -0.712651 -76.135306 17.016865 28.569039 0.000064 116.710188 -0.000058 29.456444 -15.279651 30.022930 -1.257527 0.666073 0.529804 -5.462561 -10.016548 -1.921167 0.000001 -0.000006 0.000000 -0.002828 1.597062 0.198862 0.027271 -0.616446 5.065253 -0.000000 0.000002 0.000002 0.000305 0.175724 -0.093210 0.053197 -0.860190 7.076996 0.000000 0.000000 0.000001 0.039788 -1.024495 2.594780 0.064002 -0.943144 7.763465 0.000000 0.000001 0.000001 0.158183 -1.771466 6.528620 0.012666 -0.420408 3.451763 0.000000 -0.000002 0.000001 -0.000000 0.000004 -0.000001 -0.000000 0.000001 -0.000001 -0.000000 0.000004 -0.000001 0.000000 -0.000001 0.000000 0.000000 0.000000 0.000000 0.000000 -0.000001 0.000000 0.000000 0.000000 0.000002 0.000001 0.000000 -0.000000 0.000001 0.000000 -0.000000 0.000001 0.000000 -0.000000 0.000001 0.000000 -0.000000 0.000001 0.000000 -0.000000 0.000001 0.000000 -0.000000 0.000001 0.000000 -0.000000 -0.000001 -0.000000 -0.000000 0.000002 -0.000001 0.000000 
15.841694 138.820724 77.856506 50.728525 10.249477 4.084114 0.000001 -0.000001 -0.000000 -38.001752 8.576224 21.495036 59.668956 3.677012 -1.210220 33.757182 -2.250022 -9.215489 -0.000000 0.000003 -0.000003 -0.000001 0.000001 0.000001 -52.958872 -1.863417 -27.285588 35.870938 -2.164593 0.981473 10.217951 0.132274 18.948184 -0.000001 -0.000001 0.000001 0.000001 -0.000001 -0.000002 10.783268 -3.870441 -1.430054 1.211108 -0.911031 2.318251 1.243799 -0.849101 2.327200 -4.786312 -0.267729 -4.038815 -4.786311 -0.267730 -4.038817 0.000001 0.000000 -0.000000 -4.786319 -0.267729 -4.038817 -4.786203 -0.267730 -4.038818 -0.000001 0.000000 -0.000000 0.000001 0.000000 -0.000000 0.686781 -5.452695 -4.062014 -62.575393 -17.099307 -48.191858 -0.000025 -127.047925 -0.000022 64.879147 23.502889 -9.594926 -6.256792 5.698465 7.394669 5.771048 14.502781 -0.848843 0.000001 -0.000001 -0.000001 0.393286 2.982436 -9.095822 0.344521 2.154753 -18.166141 0.000000 -0.000000 -0.000000 0.090337 1.663683 -3.479593 0.401950 2.322333 -19.636517 0.000001 0.000001 0.000000 0.018114 0.841774 -12.592080 0.442898 2.433942 -20.623099 -0.000001 -0.000001 0.000001 0.952106 5.229351 -11.690350 0.312012 -2.004646 -17.762836 -0.000000 -0.000005 0.000001 0.000001 0.000002 -0.000002 0.000001 0.000002 -0.000002 -0.000000 0.000002 -0.000002 -0.000000 -0.000001 -0.000003 0.000001 -0.000001 -0.000004 -0.000000 -0.000001 -0.000003 -0.000001 -0.000001 -0.000004 0.254132 -0.504800 0.021307 -73.749500 15.316409 29.076402 -0.000001 119.630558 -0.000007 29.888416 -15.295379 32.258956 -1.257529 0.666071 0.529802 -5.462563 -10.016548 -1.921168 0.000001 -0.000005 -0.000001 -0.002831 1.597078 0.198862 0.030270 -0.649408 5.336974 -0.000001 -0.000001 0.000000 0.000304 0.175739 -0.093209 0.057354 -0.893035 7.348737 0.000000 0.000001 -0.000001 0.039789 -1.024458 2.594781 0.068553 -0.975940 8.035227 -0.000000 -0.000001 0.000000 0.158185 -1.771446 6.528621 0.014736 -0.453446 3.723455 -0.000000 0.000003 0.000001 -0.000001 0.000001 0.000001 -0.000001 0.000000 0.000001 -0.000001 0.000001 0.000001 -0.000000 0.000000 0.000002 -0.000000 0.000001 0.000003 -0.000000 0.000000 0.000002 -0.000000 0.000001 0.000005 0.000002 0.000000 -0.000000 0.000002 0.000000 -0.000000 0.000002 0.000000 -0.000000 0.000002 0.000000 -0.000000 0.000002 0.000000 -0.000000 0.000002 0.000000 -0.000000 0.000002 0.000000 -0.000000 -0.000000 -0.000000 0.000000 0.000001 -0.000001 -0.000000 
